<svg width="30" height="30" viewBox="0 0 30 30" fill="none" xmlns="http://www.w3.org/2000/svg">
<path d="M21.5333 25.8006C23.89 25.8006 25.8005 23.8902 25.8005 21.5334C25.8005 19.1767 23.89 17.2662 21.5333 17.2662C19.1766 17.2662 17.2661 19.1767 17.2661 21.5334C17.2661 23.8902 19.1766 25.8006 21.5333 25.8006Z" stroke="#DF7D76" stroke-width="1.5" stroke-linecap="round" stroke-linejoin="round"/>
<path d="M20.8228 14.0667H22.2439" stroke="#DF7D76" stroke-width="1.5" stroke-linecap="round" stroke-linejoin="round"/>
<path d="M21.5332 14.0667V17.2661" stroke="#DF7D76" stroke-width="1.5" stroke-linecap="round" stroke-linejoin="round"/>
<path d="M26.3105 15.7505L27.3161 16.756" stroke="#DF7D76" stroke-width="1.5" stroke-linecap="round" stroke-linejoin="round"/>
<path d="M26.8134 16.2533L24.5498 18.5169" stroke="#DF7D76" stroke-width="1.5" stroke-linecap="round" stroke-linejoin="round"/>
<path d="M29 20.8228V22.2439" stroke="#DF7D76" stroke-width="1.5" stroke-linecap="round" stroke-linejoin="round"/>
<path d="M28.9998 21.5333H25.8003" stroke="#DF7D76" stroke-width="1.5" stroke-linecap="round" stroke-linejoin="round"/>
<path d="M27.3161 26.3109L26.3105 27.3164" stroke="#DF7D76" stroke-width="1.5" stroke-linecap="round" stroke-linejoin="round"/>
<path d="M26.8134 26.8136L24.5498 24.5499" stroke="#DF7D76" stroke-width="1.5" stroke-linecap="round" stroke-linejoin="round"/>
<path d="M22.2439 29H20.8228" stroke="#DF7D76" stroke-width="1.5" stroke-linecap="round" stroke-linejoin="round"/>
<path d="M21.5332 29V25.8005" stroke="#DF7D76" stroke-width="1.5" stroke-linecap="round" stroke-linejoin="round"/>
<path d="M16.756 27.3164L15.7505 26.3109" stroke="#DF7D76" stroke-width="1.5" stroke-linecap="round" stroke-linejoin="round"/>
<path d="M16.2529 26.8136L18.5166 24.5499" stroke="#DF7D76" stroke-width="1.5" stroke-linecap="round" stroke-linejoin="round"/>
<path d="M14.0669 22.2439V20.8228" stroke="#DF7D76" stroke-width="1.5" stroke-linecap="round" stroke-linejoin="round"/>
<path d="M14.0669 21.5333H17.2664" stroke="#DF7D76" stroke-width="1.5" stroke-linecap="round" stroke-linejoin="round"/>
<path d="M15.7505 16.756L16.756 15.7505" stroke="#DF7D76" stroke-width="1.5" stroke-linecap="round" stroke-linejoin="round"/>
<path d="M16.2529 16.2533L18.5166 18.5169" stroke="#DF7D76" stroke-width="1.5" stroke-linecap="round" stroke-linejoin="round"/>
<path d="M9.39993 11.2667C12.235 11.2667 14.5333 8.96839 14.5333 6.13333C14.5333 3.29828 12.235 1 9.39993 1C6.56488 1 4.2666 3.29828 4.2666 6.13333C4.2666 8.96839 6.56488 11.2667 9.39993 11.2667Z" stroke="#DF7D76" stroke-width="1.5" stroke-linecap="round" stroke-linejoin="round"/>
<path d="M1 21.5335C1.00095 20.1448 1.34601 18.7781 2.00434 17.5553C2.66266 16.3326 3.61374 15.2921 4.77252 14.5268C5.9313 13.7615 7.26167 13.2953 8.64468 13.1698C10.0277 13.0444 13 13.17 14.5 14.5268" stroke="#DF7D76" stroke-width="1.5" stroke-linecap="round" stroke-linejoin="round"/>
</svg>
