<svg width="93" height="25" viewBox="0 0 93 25" fill="none" xmlns="http://www.w3.org/2000/svg">
<path d="M3.80863 17.216C3.80863 17.692 4.20063 18.07 4.67663 18.07C5.15263 18.07 5.54463 17.692 5.54463 17.216V9.796H7.93863C8.37262 9.796 8.72263 9.432 8.72263 8.998C8.72263 8.564 8.37262 8.2 7.93863 8.2H1.42863C0.980625 8.2 0.630625 8.564 0.630625 8.998C0.630625 9.432 0.980625 9.796 1.42863 9.796H3.80863V17.216ZM9.99498 8.704C9.99498 9.208 10.415 9.544 10.961 9.544C11.507 9.544 11.927 9.208 11.927 8.704V8.62C11.927 8.116 11.507 7.794 10.961 7.794C10.415 7.794 9.99498 8.116 9.99498 8.62V8.704ZM10.121 17.23C10.121 17.706 10.499 18.07 10.961 18.07C11.437 18.07 11.815 17.706 11.815 17.23V11.378C11.815 10.902 11.437 10.524 10.961 10.524C10.485 10.524 10.121 10.902 10.121 11.378V17.23ZM14.0288 17.23C14.0288 17.706 14.4068 18.07 14.8688 18.07C15.3448 18.07 15.7228 17.706 15.7228 17.23V13.828C15.7228 12.694 16.3668 11.994 17.3048 11.994C18.2428 11.994 18.8028 12.638 18.8028 13.786V17.23C18.8028 17.706 19.1808 18.07 19.6568 18.07C20.1188 18.07 20.4968 17.706 20.4968 17.23V13.828C20.4968 12.638 21.1548 11.994 22.0788 11.994C23.0308 11.994 23.5768 12.624 23.5768 13.8V17.23C23.5768 17.706 23.9548 18.07 24.4308 18.07C24.9068 18.07 25.2708 17.706 25.2708 17.23V13.282C25.2708 11.476 24.2908 10.454 22.6808 10.454C21.5608 10.454 20.7768 10.972 20.1888 11.756C19.7968 10.972 19.0408 10.454 17.9768 10.454C16.8428 10.454 16.1988 11.07 15.7228 11.728V11.378C15.7228 10.902 15.3448 10.524 14.8688 10.524C14.3928 10.524 14.0288 10.902 14.0288 11.378V17.23ZM28.6056 13.786C28.7596 12.638 29.4876 11.84 30.5236 11.84C31.6436 11.84 32.2876 12.694 32.3996 13.786H28.6056ZM33.3796 17.188C33.5056 17.062 33.6036 16.88 33.6036 16.67C33.6036 16.278 33.3096 15.984 32.9316 15.984C32.7356 15.984 32.6236 16.04 32.4976 16.138C32.0216 16.53 31.4616 16.782 30.7476 16.782C29.6556 16.782 28.8016 16.11 28.6196 14.906H33.2536C33.6876 14.906 34.0516 14.57 34.0516 14.094C34.0516 12.386 32.8896 10.454 30.5376 10.454C28.4236 10.454 26.9256 12.19 26.9256 14.304V14.332C26.9256 16.614 28.5776 18.168 30.7196 18.168C31.8676 18.168 32.7076 17.79 33.3796 17.188ZM35.8788 17.23C35.8788 17.706 36.2568 18.07 36.7188 18.07C37.1948 18.07 37.5728 17.706 37.5728 17.23V8.55C37.5728 8.088 37.1948 7.71 36.7188 7.71C36.2428 7.71 35.8788 8.088 35.8788 8.55V17.23ZM39.7587 8.704C39.7587 9.208 40.1787 9.544 40.7247 9.544C41.2707 9.544 41.6907 9.208 41.6907 8.704V8.62C41.6907 8.116 41.2707 7.794 40.7247 7.794C40.1787 7.794 39.7587 8.116 39.7587 8.62V8.704ZM39.8847 17.23C39.8847 17.706 40.2627 18.07 40.7247 18.07C41.2007 18.07 41.5787 17.706 41.5787 17.23V11.378C41.5787 10.902 41.2007 10.524 40.7247 10.524C40.2487 10.524 39.8847 10.902 39.8847 11.378V17.23ZM43.7925 17.23C43.7925 17.706 44.1705 18.07 44.6325 18.07C45.1085 18.07 45.4865 17.706 45.4865 17.23V13.828C45.4865 12.68 46.1725 11.994 47.1525 11.994C48.1605 11.994 48.7345 12.652 48.7345 13.8V17.23C48.7345 17.706 49.1125 18.07 49.5885 18.07C50.0645 18.07 50.4285 17.706 50.4285 17.23V13.282C50.4285 11.574 49.4625 10.454 47.7965 10.454C46.6485 10.454 45.9625 11.056 45.4865 11.742V11.378C45.4865 10.902 45.1085 10.524 44.6325 10.524C44.1565 10.524 43.7925 10.902 43.7925 11.378V17.23ZM53.7482 13.786C53.9022 12.638 54.6302 11.84 55.6662 11.84C56.7862 11.84 57.4302 12.694 57.5422 13.786H53.7482ZM58.5222 17.188C58.6482 17.062 58.7462 16.88 58.7462 16.67C58.7462 16.278 58.4522 15.984 58.0742 15.984C57.8782 15.984 57.7662 16.04 57.6402 16.138C57.1642 16.53 56.6042 16.782 55.8902 16.782C54.7982 16.782 53.9442 16.11 53.7622 14.906H58.3962C58.8302 14.906 59.1942 14.57 59.1942 14.094C59.1942 12.386 58.0322 10.454 55.6802 10.454C53.5662 10.454 52.0682 12.19 52.0682 14.304V14.332C52.0682 16.614 53.7202 18.168 55.8622 18.168C57.0102 18.168 57.8502 17.79 58.5222 17.188Z" fill="#1D97DC"/>
<path d="M69 1V23.2857H91.2857" stroke="#1D97DC" stroke-width="1.71429" stroke-linecap="round" stroke-linejoin="round"/>
<path d="M74.1426 11.2856L78.4283 15.5714L85.2854 5.28564L91.2854 9.57136" stroke="#1D97DC" stroke-width="1.71429" stroke-linecap="round" stroke-linejoin="round"/>
</svg>
