<svg width="94" height="25" viewBox="0 0 94 25" fill="none" xmlns="http://www.w3.org/2000/svg">
<path d="M6.53848 7.97C5.46515 7.97 4.62048 8.32933 4.00448 9.048C3.38848 9.76667 3.08048 10.7513 3.08048 12.002C3.08048 13.2433 3.36515 14.228 3.93448 14.956C4.51315 15.6747 5.37648 16.034 6.52448 16.034C6.95382 16.034 7.36448 15.9967 7.75648 15.922C8.14848 15.8473 8.53582 15.754 8.91848 15.642V16.734C8.54515 16.874 8.15782 16.9767 7.75648 17.042C7.36448 17.1073 6.89315 17.14 6.34248 17.14C5.32515 17.14 4.47582 16.93 3.79448 16.51C3.11315 16.09 2.59982 15.4927 2.25448 14.718C1.91848 13.9433 1.75048 13.0333 1.75048 11.988C1.75048 10.98 1.93248 10.0933 2.29648 9.328C2.66982 8.55333 3.21582 7.95133 3.93448 7.522C4.65315 7.08333 5.52582 6.864 6.55248 6.864C7.60715 6.864 8.52648 7.06 9.31048 7.452L8.80648 8.516C8.49848 8.376 8.15315 8.25 7.77048 8.138C7.39715 8.026 6.98648 7.97 6.53848 7.97ZM13.7742 9.37C14.6889 9.37 15.3655 9.57067 15.8042 9.972C16.2429 10.3733 16.4622 11.0127 16.4622 11.89V17H15.5662L15.3282 15.936H15.2722C14.9455 16.3467 14.6002 16.65 14.2362 16.846C13.8722 17.042 13.3775 17.14 12.7522 17.14C12.0709 17.14 11.5062 16.9627 11.0582 16.608C10.6102 16.244 10.3862 15.6793 10.3862 14.914C10.3862 14.1673 10.6802 13.5933 11.2682 13.192C11.8562 12.7813 12.7615 12.5573 13.9842 12.52L15.2582 12.478V12.03C15.2582 11.4047 15.1229 10.9707 14.8522 10.728C14.5815 10.4853 14.1989 10.364 13.7042 10.364C13.3122 10.364 12.9389 10.4247 12.5842 10.546C12.2295 10.658 11.8982 10.7887 11.5902 10.938L11.2122 10.014C11.5389 9.83667 11.9262 9.68733 12.3742 9.566C12.8222 9.43533 13.2889 9.37 13.7742 9.37ZM15.2442 13.332L14.1382 13.374C13.2049 13.4113 12.5562 13.5607 12.1922 13.822C11.8375 14.0833 11.6602 14.452 11.6602 14.928C11.6602 15.348 11.7862 15.656 12.0382 15.852C12.2995 16.048 12.6309 16.146 13.0322 16.146C13.6575 16.146 14.1802 15.9733 14.6002 15.628C15.0295 15.2733 15.2442 14.732 15.2442 14.004V13.332ZM20.0118 17H18.7798V6.36H20.0118V17ZM25.2872 9.356C25.9219 9.356 26.4726 9.496 26.9392 9.776C27.4059 10.056 27.7606 10.4527 28.0032 10.966C28.2552 11.47 28.3812 12.0627 28.3812 12.744V13.486H23.2432C23.2619 14.3353 23.4766 14.984 23.8872 15.432C24.3072 15.8707 24.8906 16.09 25.6372 16.09C26.1132 16.09 26.5332 16.048 26.8972 15.964C27.2706 15.8707 27.6532 15.74 28.0452 15.572V16.65C27.6626 16.818 27.2846 16.9393 26.9112 17.014C26.5379 17.098 26.0946 17.14 25.5812 17.14C24.8626 17.14 24.2326 16.9953 23.6912 16.706C23.1499 16.4167 22.7252 15.9873 22.4172 15.418C22.1186 14.8487 21.9692 14.144 21.9692 13.304C21.9692 12.4827 22.1046 11.778 22.3752 11.19C22.6552 10.602 23.0426 10.1493 23.5372 9.832C24.0412 9.51467 24.6246 9.356 25.2872 9.356ZM25.2732 10.364C24.6852 10.364 24.2186 10.5553 23.8732 10.938C23.5372 11.3113 23.3366 11.834 23.2712 12.506H27.0932C27.0839 11.8713 26.9346 11.358 26.6452 10.966C26.3559 10.5647 25.8986 10.364 25.2732 10.364ZM33.9036 9.356C34.7996 9.356 35.4762 9.57533 35.9336 10.014C36.3909 10.4527 36.6196 11.1527 36.6196 12.114V17H35.4016V12.198C35.4016 10.994 34.8416 10.392 33.7216 10.392C32.8909 10.392 32.3169 10.6253 31.9996 11.092C31.6822 11.5587 31.5236 12.2307 31.5236 13.108V17H30.2916V9.496H31.2856L31.4676 10.518H31.5376C31.7802 10.126 32.1162 9.83667 32.5456 9.65C32.9749 9.454 33.4276 9.356 33.9036 9.356ZM41.6059 17.14C40.6725 17.14 39.9259 16.818 39.3659 16.174C38.8059 15.5207 38.5259 14.55 38.5259 13.262C38.5259 11.974 38.8059 11.0033 39.3659 10.35C39.9352 9.68733 40.6865 9.356 41.6199 9.356C42.1985 9.356 42.6699 9.46333 43.0339 9.678C43.4072 9.89267 43.7105 10.154 43.9439 10.462H44.0279C44.0092 10.3407 43.9905 10.1633 43.9719 9.93C43.9532 9.68733 43.9439 9.496 43.9439 9.356V6.36H45.1759V17H44.1819L43.9999 15.992H43.9439C43.7199 16.3093 43.4212 16.58 43.0479 16.804C42.6745 17.028 42.1939 17.14 41.6059 17.14ZM41.8019 16.118C42.5952 16.118 43.1505 15.9033 43.4679 15.474C43.7945 15.0353 43.9579 14.3773 43.9579 13.5V13.276C43.9579 12.3427 43.8039 11.6287 43.4959 11.134C43.1879 10.63 42.6185 10.378 41.7879 10.378C41.1252 10.378 40.6259 10.644 40.2899 11.176C39.9632 11.6987 39.7999 12.4033 39.7999 13.29C39.7999 14.186 39.9632 14.8813 40.2899 15.376C40.6259 15.8707 41.1299 16.118 41.8019 16.118ZM50.4011 9.37C51.3158 9.37 51.9925 9.57067 52.4311 9.972C52.8698 10.3733 53.0891 11.0127 53.0891 11.89V17H52.1931L51.9551 15.936H51.8991C51.5725 16.3467 51.2271 16.65 50.8631 16.846C50.4991 17.042 50.0045 17.14 49.3791 17.14C48.6978 17.14 48.1331 16.9627 47.6851 16.608C47.2371 16.244 47.0131 15.6793 47.0131 14.914C47.0131 14.1673 47.3071 13.5933 47.8951 13.192C48.4831 12.7813 49.3885 12.5573 50.6111 12.52L51.8851 12.478V12.03C51.8851 11.4047 51.7498 10.9707 51.4791 10.728C51.2085 10.4853 50.8258 10.364 50.3311 10.364C49.9391 10.364 49.5658 10.4247 49.2111 10.546C48.8565 10.658 48.5251 10.7887 48.2171 10.938L47.8391 10.014C48.1658 9.83667 48.5531 9.68733 49.0011 9.566C49.4491 9.43533 49.9158 9.37 50.4011 9.37ZM51.8711 13.332L50.7651 13.374C49.8318 13.4113 49.1831 13.5607 48.8191 13.822C48.4645 14.0833 48.2871 14.452 48.2871 14.928C48.2871 15.348 48.4131 15.656 48.6651 15.852C48.9265 16.048 49.2578 16.146 49.6591 16.146C50.2845 16.146 50.8071 15.9733 51.2271 15.628C51.6565 15.2733 51.8711 14.732 51.8711 14.004V13.332ZM58.9068 9.356C59.0468 9.356 59.1961 9.36533 59.3548 9.384C59.5135 9.39333 59.6581 9.412 59.7888 9.44L59.6348 10.574C59.5135 10.546 59.3781 10.5227 59.2288 10.504C59.0795 10.4853 58.9441 10.476 58.8228 10.476C58.4401 10.476 58.0808 10.5833 57.7448 10.798C57.4088 11.0033 57.1381 11.2973 56.9328 11.68C56.7368 12.0533 56.6388 12.492 56.6388 12.996V17H55.4068V9.496H56.4148L56.5548 10.868H56.6108C56.8441 10.4573 57.1521 10.1027 57.5348 9.804C57.9268 9.50533 58.3841 9.356 58.9068 9.356Z" fill="#1D97DC"/>
<path d="M71.7146 4.4292C71.2599 4.4292 70.8238 4.60985 70.5022 4.9314C70.1806 5.25295 70 5.68907 70 6.14381V21.5753C70 22.0301 70.1806 22.4662 70.5022 22.7877C70.8238 23.1093 71.2599 23.2899 71.7146 23.2899H90.5753C91.0301 23.2899 91.4662 23.1093 91.7878 22.7877C92.1093 22.4662 92.29 22.0301 92.29 21.5753V6.14381C92.29 5.68907 92.1093 5.25295 91.7878 4.9314C91.4662 4.60985 91.0301 4.4292 90.5753 4.4292H87.1461" stroke="#1D97DC" stroke-width="1.71429" stroke-linecap="round" stroke-linejoin="round"/>
<path d="M75.1436 1V7.85845" stroke="#1D97DC" stroke-width="1.71429" stroke-linecap="round" stroke-linejoin="round"/>
<path d="M87.146 1V7.85845" stroke="#1D97DC" stroke-width="1.71429" stroke-linecap="round" stroke-linejoin="round"/>
<path d="M75.1436 4.4292H83.7166" stroke="#1D97DC" stroke-width="1.71429" stroke-linecap="round" stroke-linejoin="round"/>
<path d="M75.1439 13.8596C75.6174 13.8596 76.0012 13.4758 76.0012 13.0023C76.0012 12.5288 75.6174 12.145 75.1439 12.145C74.6705 12.145 74.2866 12.5288 74.2866 13.0023C74.2866 13.4758 74.6705 13.8596 75.1439 13.8596Z" stroke="#1D97DC" stroke-width="1.71429" stroke-linecap="round" stroke-linejoin="round"/>
<path d="M81.1449 13.8596C81.6184 13.8596 82.0022 13.4758 82.0022 13.0023C82.0022 12.5288 81.6184 12.145 81.1449 12.145C80.6714 12.145 80.2876 12.5288 80.2876 13.0023C80.2876 13.4758 80.6714 13.8596 81.1449 13.8596Z" stroke="#1D97DC" stroke-width="1.71429" stroke-linecap="round" stroke-linejoin="round"/>
<path d="M87.1464 13.8596C87.6198 13.8596 88.0037 13.4758 88.0037 13.0023C88.0037 12.5288 87.6198 12.145 87.1464 12.145C86.6729 12.145 86.2891 12.5288 86.2891 13.0023C86.2891 13.4758 86.6729 13.8596 87.1464 13.8596Z" stroke="#1D97DC" stroke-width="1.71429" stroke-linecap="round" stroke-linejoin="round"/>
<path d="M75.1439 19.0034C75.6174 19.0034 76.0012 18.6196 76.0012 18.1461C76.0012 17.6726 75.6174 17.2888 75.1439 17.2888C74.6705 17.2888 74.2866 17.6726 74.2866 18.1461C74.2866 18.6196 74.6705 19.0034 75.1439 19.0034Z" stroke="#1D97DC" stroke-width="1.71429" stroke-linecap="round" stroke-linejoin="round"/>
</svg>
